PathFileType	4	(X/Y/Z)	D:\TRACE\v60_Jaco2_6-2-23\JustBodyDRS_Motion1_4-platform.trc
DataRate	CameraRate	NumFrames	NumMarkers	Units	OrigDataRate	OrigDataStartFrame	OrigNumFrames
100.00	100.00	      73	5	mm	100.00	2609	      6956
Frame#	Time	Left_Front			Right_Front			Left_Aft			Right_Aft			Post			
		X1	Y1	Z1	X2	Y2	Z2	X3	Y3	Z3	X4	Y4	Z4	X5	Y5	Z5	

2609	26.080	-767.66919	17.79967	-636.89355	802.13007	19.06839	-642.38373	-676.17712	1.83206	497.64801	766.19269	0.69239	507.55646	18.42866	1321.31421	-942.34784	
2610	26.090	-768.59406	17.11280	-637.15259	801.27002	18.63514	-642.64307	-676.92273	1.76251	497.88696	765.51971	1.01823	507.42352	17.83788	1320.68665	-943.81219	
2611	26.100	-769.15039	16.81224	-637.30316	800.53406	17.98770	-642.71112	-677.57758	1.94855	497.89523	764.92786	1.35799	507.38593	16.97136	1319.98669	-945.73547	
2612	26.110	-770.04285	16.38754	-637.24646	799.87830	17.54934	-642.59698	-678.22858	2.25500	497.84561	764.21747	1.74490	507.23672	16.51882	1319.21082	-946.76648	
2613	26.120	-771.00085	16.05898	-637.49396	799.05469	17.25673	-642.79846	-678.81317	2.63756	497.75079	763.00476	2.10669	507.18179	15.41945	1318.44714	-947.98041	
2614	26.130	-771.67358	15.72321	-637.65430	798.35510	16.72527	-643.07471	-679.76361	3.05322	497.55460	762.80017	2.43162	507.07401	14.77827	1317.82581	-949.05542	
2615	26.140	-772.25800	14.86643	-637.63043	797.59717	16.28026	-643.24188	-680.71014	3.39913	497.39847	761.82721	2.86203	506.95276	13.93911	1317.19775	-949.86469	
2616	26.150	-772.90088	14.17624	-637.78162	797.02246	15.80541	-642.88599	-681.13336	3.65374	497.37732	760.93579	3.01018	506.86319	13.46210	1316.47437	-950.00031	
2617	26.160	-773.88153	13.80968	-637.77594	796.13965	15.22025	-643.21136	-681.93616	3.83426	497.33533	760.13214	3.31943	506.73172	12.44844	1315.64526	-950.70142	
2618	26.170	-774.77167	13.41949	-637.86908	795.00623	14.83507	-643.47351	-682.92224	4.24406	497.23450	759.39404	3.62598	506.80231	11.28543	1315.06152	-951.11157	
2619	26.180	-775.53986	13.34377	-638.17120	794.45660	14.77019	-643.60852	-683.81885	4.67707	497.02344	758.15259	4.05084	506.61548	10.77771	1314.32068	-951.49658	
2620	26.190	-776.11652	12.69882	-638.01721	793.65009	14.32441	-643.57513	-684.43359	5.12313	496.89807	757.85681	4.26677	506.43307	9.83050	1313.78796	-952.31488	
2621	26.200	-776.81750	11.83381	-638.46570	792.92267	13.35298	-643.68195	-685.17505	5.33549	496.83072	757.10211	4.74813	506.39670	9.11384	1312.83667	-953.10425	
2622	26.210	-777.77783	11.08055	-638.46130	792.04633	12.72483	-643.87567	-686.20380	5.72650	496.64783	755.98193	4.96279	506.19217	8.33691	1312.01868	-954.87048	
2623	26.220	-778.93658	10.52542	-638.51825	791.12097	12.26155	-643.88556	-686.94464	6.17091	496.42615	755.28876	5.29003	506.09192	7.38729	1311.40454	-956.06122	
2624	26.230	-779.72516	10.56020	-638.83289	790.40363	11.95788	-643.90955	-687.81244	6.42947	496.36835	754.43768	5.64979	506.10172	6.60034	1310.55957	-958.24237	
2625	26.240	-780.17163	10.14430	-638.48254	789.45135	11.52520	-644.18207	-688.70526	6.63869	496.27301	753.51434	6.00621	505.90082	5.78291	1309.97168	-960.22229	
2626	26.250	-781.18774	9.40660	-638.87317	788.58191	11.10929	-644.24493	-689.45361	7.07231	496.19699	752.65118	6.38129	505.83963	4.98752	1309.27478	-961.88013	
2627	26.260	-782.21887	9.00000	-638.91248	787.74219	10.57407	-644.32593	-690.28735	7.53293	496.07477	752.03845	6.80096	505.74548	4.61592	1308.67334	-963.22772	
2628	26.270	-783.16119	8.59409	-639.15411	786.84705	9.97817	-644.59180	-691.34540	7.78807	495.96939	751.02264	7.08547	505.54480	3.24631	1308.09094	-964.68799	
2629	26.280	-783.93890	8.24610	-639.45013	786.01178	9.64027	-644.71936	-692.04559	7.88814	495.95096	750.17511	7.29259	506.07974	2.39181	1307.19470	-965.28815	
2630	26.290	-784.46722	8.09643	-639.37781	785.09167	9.22113	-644.66034	-692.85132	8.23801	496.00540	749.20575	7.76750	505.80557	1.37941	1306.57935	-966.39313	
2631	26.300	-785.68097	7.29473	-639.27081	784.25842	8.86290	-644.63885	-693.96008	8.62401	495.83670	748.40088	7.95880	505.55310	0.88909	1305.85681	-966.95886	
2632	26.310	-786.69495	6.79565	-639.47919	783.16577	8.23050	-645.00671	-694.92523	9.12304	495.64035	747.64526	8.50473	505.43497	-0.92084	1305.42358	-967.84003	
2633	26.320	-787.72241	6.13081	-639.81775	782.46967	7.74814	-644.81677	-695.70630	9.32175	495.53732	746.87231	8.68457	505.26050	-1.83029	1304.83740	-967.81519	
2634	26.330	-788.33710	5.71114	-640.05530	781.46210	7.34827	-645.02435	-696.69055	9.58303	495.38232	745.29956	9.11424	505.36713	-2.34243	1303.87183	-968.02875	
2635	26.340	-788.99823	5.25542	-639.52991	780.38379	6.75228	-645.27454	-697.53345	9.96063	495.34732	744.83008	9.29180	505.24380	-3.26432	1303.12805	-968.19293	
2636	26.350	-790.44550	4.99389	-639.72015	779.64624	6.51264	-645.21143	-698.45129	10.45032	495.27536	743.80640	9.75273	505.09250	-4.24552	1302.61987	-968.57190	
2637	26.360	-791.20422	4.61470	-640.15002	778.58002	6.21365	-645.37238	-699.52954	10.66255	495.17892	743.17719	10.03349	504.94666	-5.53776	1301.86597	-969.55621	
2638	26.370	-792.22083	4.10442	-640.32092	777.75720	5.74120	-645.55164	-700.34357	10.86504	495.11267	742.35052	10.46584	504.74380	-6.14375	1301.44434	-970.41748	
2639	26.380	-792.93152	3.53471	-640.32245	776.73413	5.10736	-645.81610	-701.23859	11.16770	495.05551	741.03577	10.52913	504.64737	-7.07155	1300.61292	-971.94159	
2640	26.390	-793.98956	3.00629	-640.07727	775.88165	4.67811	-645.76276	-702.30957	11.57470	494.92828	739.85242	10.90441	504.64844	-8.09274	1299.71826	-973.21887	
2641	26.400	-795.16638	2.55328	-640.20026	774.74829	4.11382	-645.82477	-703.28949	11.86550	494.72168	739.11169	10.98854	504.54391	-8.78826	1299.21655	-975.12952	
2642	26.410	-795.92340	2.42392	-640.62061	774.04883	3.67453	-645.90790	-704.44763	12.27336	494.86819	738.07581	11.57973	504.11276	-9.93413	1298.39856	-976.76404	
2643	26.420	-796.77026	1.78084	-640.53766	773.04822	3.37329	-645.98969	-705.54413	12.66213	494.93387	737.32928	11.96185	504.08319	-10.37601	1297.93042	-977.90833	
2644	26.430	-797.94281	1.37283	-640.55060	772.17468	2.97909	-645.84021	-706.49969	13.09047	494.64688	736.23956	12.27619	503.94458	-11.26670	1297.43921	-979.13007	
2645	26.440	-798.80212	0.84326	-640.72833	771.11133	2.34368	-646.16864	-707.48938	13.48681	494.59497	735.32343	12.44621	503.87503	-13.02166	1296.70520	-980.15668	
2646	26.450	-799.81842	0.48365	-640.98578	770.40424	1.95143	-646.22571	-708.60596	13.89754	494.48590	734.45837	12.67533	503.84763	-13.91901	1296.14624	-980.97424	
2647	26.460	-800.55194	0.30499	-641.29901	769.21606	1.76209	-646.26678	-708.83136	13.56974	494.27139	733.08899	13.04463	503.79825	-14.47190	1295.27869	-981.69281	
2648	26.470	-801.79547	-0.08289	-640.83936	768.32184	1.31441	-646.15143	-709.72375	13.79822	494.01953	732.33990	13.43422	503.71030	-15.55673	1294.82336	-982.40936	
2649	26.480	-802.64545	-0.56729	-641.02234	767.27716	0.81606	-646.43610	-710.88684	14.25264	493.92914	731.48560	13.75612	503.54462	-16.51027	1294.37781	-982.63641	
2650	26.490	-803.69110	-1.30001	-641.27295	766.49677	0.41278	-646.49921	-711.76245	14.56078	493.69873	730.41406	13.88063	503.37079	-17.87954	1293.61658	-982.90118	
2651	26.500	-804.52728	-1.72347	-641.38922	765.44226	0.08061	-646.36487	-712.76147	14.68290	493.81064	729.71851	14.22643	503.22116	-18.54418	1293.14075	-983.19501	
2652	26.510	-805.75244	-1.93311	-641.25214	764.41779	-0.48232	-646.52997	-713.76825	14.92547	493.85629	728.69263	14.89970	502.83380	-19.48059	1292.52686	-983.53064	
2653	26.520	-806.57336	-2.26471	-641.15002	763.54803	-0.74983	-646.74591	-714.63507	15.19303	493.72916	727.61316	15.18234	502.86111	-20.66215	1291.81104	-984.19928	
2654	26.530	-807.59979	-2.43201	-641.46613	762.50800	-0.96403	-646.76227	-715.64801	15.63186	493.62573	726.90228	15.32741	502.79565	-21.38876	1291.12476	-984.85925	
2655	26.540	-808.39258	-2.83637	-641.75372	761.46252	-1.28999	-646.80750	-716.68066	15.85101	493.43463	725.93866	15.76474	502.64111	-22.44095	1290.81641	-986.16425	
2656	26.550	-809.62793	-3.24648	-641.56995	760.18817	-1.86366	-647.12860	-717.51624	15.80341	493.29565	724.65198	15.72185	502.90729	-23.43288	1290.20996	-987.47906	
2657	26.560	-810.36676	-3.64670	-641.48322	759.57056	-2.10295	-647.03693	-718.63635	16.18592	493.30051	723.68506	15.81359	502.82452	-24.63256	1289.78821	-988.58423	
2658	26.570	-811.39398	-3.72695	-641.89911	758.53204	-2.32884	-647.05933	-719.58740	16.47032	493.15842	722.66803	15.96183	502.71039	-25.17784	1289.23071	-989.89618	
2659	26.580	-812.37006	-3.84429	-642.21753	757.44714	-2.65336	-647.22180	-719.94287	16.25487	493.12262	721.99042	16.28743	502.67508	-25.93412	1288.47949	-991.03156	
2660	26.590	-813.50525	-4.26470	-641.83478	756.45361	-3.28897	-647.27454	-721.28680	16.74822	492.96829	720.59509	16.60512	502.59222	-27.08235	1287.93396	-991.74335	
2661	26.600	-814.33832	-5.50565	-641.71118	755.74432	-4.14693	-647.31067	-722.41785	17.21241	492.83990	719.77130	16.95250	502.63074	-28.13519	1287.27234	-992.60590	
2662	26.610	-815.14368	-5.74975	-642.18182	754.64221	-4.30412	-647.47784	-722.93799	17.09342	492.88205	718.89465	17.28938	502.48529	-29.26318	1286.62939	-993.18060	
2663	26.620	-816.15430	-5.94195	-642.48792	753.62500	-4.60479	-647.57477	-724.10834	17.38584	492.74899	718.05389	17.48324	502.42532	-29.89538	1286.19373	-993.94025	
2664	26.630	-817.39063	-5.96426	-642.11169	752.94415	-4.79078	-647.51324	-725.15991	17.84239	492.75864	716.82031	17.78728	502.38339	-31.33768	1285.85034	-994.42181	
2665	26.640	-818.00079	-6.22056	-642.17365	751.70337	-5.19242	-647.55658	-726.36646	18.42182	492.34521	716.06183	17.88772	502.24380	-32.20689	1285.31677	-994.76282	
2666	26.650	-819.10614	-6.80912	-642.21930	751.02600	-5.38556	-647.63269	-726.95392	17.93875	492.51749	715.05890	18.14748	502.17404	-33.07912	1284.81750	-995.40686	
2667	26.660	-819.99268	-7.10717	-642.63361	749.75165	-5.80172	-647.93793	-727.71130	18.09041	492.46695	714.32074	18.38246	502.13239	-33.92371	1284.36719	-995.88092	
2668	26.670	-821.13586	-7.09140	-642.56091	749.08136	-6.06455	-647.80438	-728.58868	17.89655	492.34030	713.07684	18.41373	502.04144	-34.90727	1284.01526	-996.19525	
2669	26.680	-821.76416	-7.28959	-642.40961	748.01697	-6.19099	-647.87524	-729.47327	18.19920	492.38290	712.17377	18.73670	502.03592	-35.66293	1283.44348	-996.76544	
2670	26.690	-822.73315	-7.65771	-642.42322	747.32819	-6.36349	-647.87537	-730.67444	18.93743	492.16974	711.50537	18.86164	501.94220	-36.64608	1283.15613	-997.25867	
2671	26.700	-823.61847	-7.76030	-642.69788	746.32971	-6.79111	-647.98535	-731.41309	18.95181	492.24072	710.29022	18.99410	501.79810	-37.78573	1282.84106	-997.66083	
2672	26.710	-824.57990	-8.18109	-642.59790	745.29303	-7.19349	-647.90637	-732.66949	19.52467	492.06363	709.60443	19.30083	501.68835	-38.99257	1282.39050	-998.39148	
2673	26.720	-825.63812	-8.67777	-642.70941	744.42444	-7.44133	-647.98126	-733.67407	19.62132	492.06000	708.30731	19.41295	501.74521	-39.59085	1281.98926	-998.83990	
2674	26.730	-826.28815	-9.20138	-642.65857	743.50897	-7.77588	-648.21057	-734.54645	19.97997	491.95093	707.69434	19.67769	501.61090	-40.35252	1281.39514	-999.37946	
2675	26.740	-827.12061	-9.63452	-642.76721	742.73865	-8.15386	-648.30103	-735.48224	20.27252	491.90994	706.89600	19.91517	501.46402	-41.12124	1280.80298	-1000.53857	
2676	26.750	-828.39362	-9.63870	-642.70624	741.62177	-8.43809	-648.16809	-736.33539	20.58582	491.88361	705.93982	20.05337	501.45401	-42.04025	1280.27112	-1001.48578	
2677	26.760	-829.28107	-9.75546	-642.92352	740.87811	-8.56387	-648.20618	-737.27740	20.70853	491.86874	705.23633	20.34784	501.28415	-42.94336	1280.02002	-1002.35852	
2678	26.770	-829.94281	-10.17791	-642.90308	740.18018	-8.81818	-648.21277	-737.96704	20.64334	491.76999	704.42413	20.45486	501.32785	-43.51393	1279.50647	-1003.04993	
2679	26.780	-830.71942	-10.43780	-642.92859	739.29272	-9.00085	-648.37762	-738.71039	20.70495	491.62003	703.28680	20.64451	501.35849	-44.43682	1279.17200	-1003.79242	
2680	26.790	-831.40930	-10.56800	-643.15637	738.35443	-9.36659	-648.42694	-739.69159	21.03322	491.55698	702.53571	20.82866	501.24686	-45.40031	1278.90247	-1004.08844	
2681	26.800	-832.37146	-10.66124	-643.01428	737.43103	-9.53991	-648.43610	-740.54852	21.20945	491.55664	701.89777	20.92990	501.15784	-46.59113	1278.46729	-1004.71582	
